<svg width="38" height="38" viewBox="0 0 38 38" fill="none" xmlns="http://www.w3.org/2000/svg">
<path d="M19 17.4166H14.25M19 12.6666V17.4166V12.6666ZM19 17.4166V22.1666V17.4166ZM19 17.4166H23.75H19Z" stroke="white" stroke-width="3.16667" stroke-linecap="round"/>
<path d="M22.1667 30.0833C28.1374 30.0833 31.1236 30.0833 32.9777 28.2277C34.8333 26.3736 34.8333 23.3874 34.8333 17.4167C34.8333 11.4459 34.8333 8.45975 32.9777 6.60567C31.1236 4.75 28.1374 4.75 22.1667 4.75H15.8333C9.86257 4.75 6.87641 4.75 5.02232 6.60567C3.16666 8.45975 3.16666 11.4459 3.16666 17.4167C3.16666 23.3874 3.16666 26.3736 5.02232 28.2277C6.05624 29.2632 7.44166 29.7208 9.49999 29.9218" stroke="white" stroke-width="3.16667" stroke-linecap="round" stroke-linejoin="round"/>
<path d="M22.1667 30.0834C20.2097 30.0834 18.0532 30.875 16.0851 31.8963C12.9216 33.5382 11.3398 34.36 10.5608 33.8359C9.78182 33.3134 9.92907 31.6905 10.2252 28.4462L10.2917 27.7084" stroke="white" stroke-width="3.16667" stroke-linecap="round"/>
</svg>
