<svg width="38" height="38" viewBox="0 0 38 38" fill="none" xmlns="http://www.w3.org/2000/svg">
<path d="M25.3333 33.25H28.5" stroke="white" stroke-width="3.16667" stroke-linecap="round" stroke-linejoin="round"/>
<path d="M12.6667 33.25H15.8333" stroke="white" stroke-width="3.16667" stroke-linecap="round" stroke-linejoin="round"/>
<path d="M7.91667 11.0834H29.7508C30.1933 11.0834 30.6308 11.1761 31.0351 11.3556C31.4395 11.535 31.8018 11.7972 32.0987 12.1252C32.3955 12.4533 32.6204 12.8399 32.7587 13.2601C32.897 13.6803 32.9457 14.1249 32.9017 14.5651L31.9517 24.0651C31.8735 24.8465 31.5079 25.571 30.9256 26.0979C30.3434 26.6249 29.5861 26.9167 28.8008 26.9167H13.68C12.9477 26.917 12.2379 26.6635 11.6715 26.1992C11.105 25.735 10.717 25.0888 10.5735 24.3707L7.91667 11.0834Z" stroke="white" stroke-width="3.16667" stroke-linejoin="round"/>
<path d="M7.91667 11.0833L6.63417 5.94858C6.5484 5.60619 6.35068 5.30228 6.07241 5.08512C5.79415 4.86796 5.4513 4.75001 5.09833 4.75H3.16667" stroke="white" stroke-width="3.16667" stroke-linecap="round" stroke-linejoin="round"/>
</svg>
